<svg width="24" height="24" viewBox="0 0 24 24" fill="none" xmlns="http://www.w3.org/2000/svg">
<path d="M24 23.9999V16.2856L7.71428 16.2856V23.9999L24 23.9999Z" fill="#3360FF"/>
<path d="M7.71429 16.2857L7.71429 0L9.53674e-06 0L9.53674e-06 16.2857H7.71429Z" fill="#3360FF"/>
<path d="M24 6.74979H17.25V0C20.9737 0 24 3.02616 24 6.74979Z" fill="#3360FF"/>
<path d="M24 6.75021H17.25V13.5C20.9737 13.5 24 10.4738 24 6.75021Z" fill="#3360FF"/>
<path d="M10.5 6.74979H17.25V0C13.5263 0 10.5 3.02616 10.5 6.74979Z" fill="#3360FF"/>
<path d="M10.5 6.75021H17.25V13.5C13.5263 13.5 10.5 10.4738 10.5 6.75021Z" fill="#3360FF"/>
<path d="M0 16.2856H7.71429V23.9999C3.45857 23.9999 0 20.5414 0 16.2856Z" fill="#3360FF"/>
</svg>
