<svg width="115" height="24" viewBox="0 0 115 24" fill="none" xmlns="http://www.w3.org/2000/svg">
<path d="M37.54 5V18.16L35.68 16.32H46.9V20H33.4V5H37.54ZM48.3934 8.4L50.4534 8.8L52.4934 8.4V20H48.3934V8.4ZM50.4334 7.46C49.7268 7.46 49.1534 7.28667 48.7134 6.94C48.2734 6.58 48.0534 6.09333 48.0534 5.48C48.0534 4.88 48.2734 4.4 48.7134 4.04C49.1534 3.68 49.7268 3.5 50.4334 3.5C51.1668 3.5 51.7468 3.68 52.1734 4.04C52.6134 4.4 52.8334 4.88 52.8334 5.48C52.8334 6.09333 52.6134 6.58 52.1734 6.94C51.7468 7.28667 51.1668 7.46 50.4334 7.46ZM54.2011 8.58H58.3011L59.0411 13.14V20H54.9611V12.52L54.2011 8.58ZM63.2411 8.24C64.3344 8.24 65.2678 8.46 66.0411 8.9C66.8144 9.34 67.4011 9.96 67.8011 10.76C68.2144 11.56 68.4211 12.5067 68.4211 13.6V20H64.3411V14.2C64.3411 13.3467 64.1211 12.6933 63.6811 12.24C63.2544 11.7867 62.6344 11.56 61.8211 11.56C61.2611 11.56 60.7678 11.68 60.3411 11.92C59.9278 12.16 59.6078 12.5 59.3811 12.94C59.1544 13.38 59.0411 13.9 59.0411 14.5L57.7811 13.84C57.9411 12.6267 58.2811 11.6067 58.8011 10.78C59.3211 9.94 59.9611 9.30667 60.7211 8.88C61.4811 8.45333 62.3211 8.24 63.2411 8.24ZM87.3256 13.72C87.179 15.04 86.7256 16.2 85.9656 17.2C85.2056 18.1867 84.2056 18.9533 82.9656 19.5C81.739 20.0467 80.3256 20.32 78.7256 20.32C76.979 20.32 75.4523 19.9933 74.1456 19.34C72.839 18.6867 71.819 17.7733 71.0856 16.6C70.3656 15.4267 70.0056 14.06 70.0056 12.5C70.0056 10.94 70.3656 9.57333 71.0856 8.4C71.819 7.22667 72.839 6.31333 74.1456 5.66C75.4523 5.00667 76.979 4.68 78.7256 4.68C80.3256 4.68 81.739 4.95333 82.9656 5.5C84.2056 6.04667 85.2056 6.82 85.9656 7.82C86.7256 8.80667 87.179 9.96 87.3256 11.28H83.1656C83.0323 10.64 82.7723 10.1 82.3856 9.66C81.999 9.20667 81.4923 8.86 80.8656 8.62C80.2523 8.38 79.539 8.26 78.7256 8.26C77.7923 8.26 76.9856 8.43333 76.3056 8.78C75.6256 9.11333 75.1056 9.6 74.7456 10.24C74.3856 10.8667 74.2056 11.62 74.2056 12.5C74.2056 13.38 74.3856 14.14 74.7456 14.78C75.1056 15.4067 75.6256 15.8933 76.3056 16.24C76.9856 16.5733 77.7923 16.74 78.7256 16.74C79.539 16.74 80.2523 16.6267 80.8656 16.4C81.4923 16.1733 81.999 15.8333 82.3856 15.38C82.7723 14.9267 83.0323 14.3733 83.1656 13.72H87.3256ZM95.7989 20.32C94.3322 20.32 93.0522 20.0733 91.9589 19.58C90.8656 19.0733 90.0122 18.3667 89.3989 17.46C88.7856 16.54 88.4789 15.4867 88.4789 14.3C88.4789 13.0867 88.7856 12.0267 89.3989 11.12C90.0122 10.2133 90.8656 9.50667 91.9589 9C93.0522 8.49333 94.3322 8.24 95.7989 8.24C97.2522 8.24 98.5256 8.49333 99.6189 9C100.726 9.50667 101.586 10.2133 102.199 11.12C102.812 12.0267 103.119 13.0867 103.119 14.3C103.119 15.4867 102.812 16.54 102.199 17.46C101.586 18.3667 100.726 19.0733 99.6189 19.58C98.5256 20.0733 97.2522 20.32 95.7989 20.32ZM95.7989 17.3C96.4656 17.3 97.0322 17.18 97.4989 16.94C97.9789 16.7 98.3456 16.3533 98.5989 15.9C98.8522 15.4467 98.9789 14.9133 98.9789 14.3C98.9789 13.66 98.8522 13.12 98.5989 12.68C98.3456 12.2267 97.9789 11.88 97.4989 11.64C97.0322 11.4 96.4656 11.28 95.7989 11.28C95.1322 11.28 94.5589 11.4 94.0789 11.64C93.5989 11.88 93.2322 12.2267 92.9789 12.68C92.7256 13.12 92.5989 13.6533 92.5989 14.28C92.5989 14.9067 92.7256 15.4467 92.9789 15.9C93.2322 16.3533 93.5989 16.7 94.0789 16.94C94.5589 17.18 95.1322 17.3 95.7989 17.3ZM104.221 8.58H108.381L109.061 12.66V20H104.981V12.42L104.221 8.58ZM114.421 8.4V11.88C114.021 11.8 113.641 11.7467 113.281 11.72C112.934 11.68 112.614 11.66 112.321 11.66C111.734 11.66 111.194 11.78 110.701 12.02C110.207 12.2467 109.807 12.6267 109.501 13.16C109.207 13.6933 109.061 14.4067 109.061 15.3L108.281 14.34C108.387 13.5133 108.547 12.74 108.761 12.02C108.974 11.2867 109.261 10.64 109.621 10.08C109.994 9.50667 110.454 9.06 111.001 8.74C111.547 8.40667 112.214 8.24 113.001 8.24C113.227 8.24 113.461 8.25333 113.701 8.28C113.941 8.30667 114.181 8.34667 114.421 8.4Z" fill="#020C31"/>
<path d="M24 23.9994V16.2852L7.71428 16.2852V23.9994L24 23.9994Z" fill="#3360FF"/>
<path d="M7.71436 16.2857L7.71436 0L7.05719e-05 0L7.05719e-05 16.2857H7.71436Z" fill="#3360FF"/>
<path d="M24 6.74979H17.25V0C20.9737 0 24 3.02616 24 6.74979Z" fill="#3360FF"/>
<path d="M24 6.75021H17.25V13.5C20.9737 13.5 24 10.4738 24 6.75021Z" fill="#3360FF"/>
<path d="M10.5 6.74979H17.25V0C13.5263 0 10.5 3.02616 10.5 6.74979Z" fill="#3360FF"/>
<path d="M10.5 6.75021H17.25V13.5C13.5263 13.5 10.5 10.4738 10.5 6.75021Z" fill="#3360FF"/>
<path d="M0 16.2852H7.71429V23.9994C3.45857 23.9994 0 20.5409 0 16.2852Z" fill="#3360FF"/>
</svg>
