<svg xmlns="http://www.w3.org/2000/svg" width="500" height="189" viewBox="0 0 500 189" version="1.1"><path d="M 104.813 1.926 C 102.236 2.934, 98.636 4.669, 96.813 5.781 C 94.991 6.894, 82.250 13.631, 68.500 20.753 C 36.892 37.124, 20.400 46.026, 11.429 51.558 C 0.066 58.566, -1.736 64.740, 5.569 71.630 C 10.011 75.819, 104.976 123.421, 110.726 124.340 C 118.492 125.582, 124.611 123.229, 162.829 104.307 C 183.360 94.141, 200.460 86.126, 200.829 86.495 C 201.198 86.864, 201.500 98.798, 201.500 113.014 L 201.500 138.862 198.636 141.855 C 196.635 143.946, 195.618 146.213, 195.261 149.376 C 194.805 153.426, 195.073 154.227, 197.798 156.952 C 200.075 159.229, 201.764 160, 204.473 160 C 209.272 160, 213.614 157.647, 215.483 154.033 C 217.724 149.700, 217.363 147.483, 213.750 143.373 C 210.676 139.876, 210.473 139.157, 210 130.088 C 209.725 124.815, 209.630 111.432, 209.789 100.350 L 210.078 80.200 217.589 76.489 C 226.133 72.267, 228.500 69.410, 228.500 63.317 C 228.500 57.939, 225.798 55.046, 215.598 49.500 C 211.551 47.300, 199.074 40.481, 187.870 34.346 C 176.667 28.212, 157.296 17.975, 144.824 11.596 C 122.829 0.349, 121.957 0.001, 115.824 0.047 C 112.172 0.074, 107.520 0.868, 104.813 1.926 M 269.132 3.750 C 268.082 5.813, 264.412 16.275, 260.976 27 C 257.541 37.725, 252.296 53.700, 249.322 62.500 C 237.537 97.373, 225 140.655, 225 146.470 C 225 150.676, 227.983 151.372, 248.500 151.958 L 267.500 152.500 268.059 170.500 C 268.366 180.400, 268.703 188.613, 268.809 188.750 C 268.914 188.887, 270.238 188.970, 271.750 188.932 C 274.377 188.868, 274.404 188.818, 272.347 187.823 C 269.511 186.450, 268.805 181.482, 269.135 165.218 C 269.278 158.194, 269.077 151.934, 268.690 151.307 C 268.205 150.522, 262.429 150.162, 250.199 150.154 C 240.417 150.147, 231.228 149.844, 229.779 149.481 C 225.252 148.344, 225.170 149.199, 232.382 122.194 C 236.793 105.675, 241.802 89.406, 247.683 72.500 C 250.170 65.350, 252.753 57.250, 253.423 54.500 C 254.094 51.750, 255.123 48.600, 255.711 47.500 C 256.299 46.400, 258.378 40.325, 260.333 34 C 266.987 12.465, 270.949 2.380, 273.390 0.765 C 274.083 0.306, 273.851 0.025, 272.770 0.015 C 271.769 0.006, 270.237 1.579, 269.132 3.750 M 283.282 1.170 C 284.800 2.320, 285.186 4.967, 285.883 19.010 L 286.701 35.500 286.732 21 C 286.769 3.971, 286.254 0.660, 283.492 0.172 C 281.614 -0.160, 281.602 -0.103, 283.282 1.170 M 337.552 1.250 C 336.337 5.192, 336.039 18.461, 335.400 97.194 C 334.580 198.249, 333.580 189, 345.332 189 C 357.102 189, 356.415 190.746, 357 159.333 C 357.342 140.988, 357.883 131.832, 358.712 130.387 C 359.378 129.225, 361.300 127.704, 362.983 127.007 C 367.076 125.312, 380.573 126.144, 382.649 128.220 C 384.932 130.503, 385.931 141.297, 385.967 164.059 C 385.992 179.466, 386.331 185.070, 387.320 186.423 C 388.449 187.966, 389.821 188.174, 396.790 187.858 C 402.893 187.581, 405.385 187.044, 406.707 185.721 C 408.371 184.057, 408.470 178.724, 408.407 94.227 C 408.370 44.877, 408.008 3.488, 407.602 2.250 C 407.197 1.012, 406.151 0, 405.278 0 C 403.862 0, 403.873 0.202, 405.375 1.862 C 406.887 3.533, 407.039 6.803, 406.850 33.612 C 406.734 50.050, 406.661 67.325, 406.688 72 C 407.030 131.924, 406.901 182.094, 406.402 183.394 C 406.060 184.287, 404.680 185.293, 403.336 185.630 C 399.094 186.695, 390.152 186.545, 388.994 185.390 C 388.257 184.655, 387.763 176.036, 387.534 159.890 C 387.056 126.204, 386.769 125.559, 371.794 124.599 C 365.599 124.202, 363.804 124.427, 362.173 125.806 C 361.071 126.738, 359.454 127.950, 358.580 128.500 C 356.046 130.094, 355.290 137.336, 355.115 161.683 C 354.991 178.843, 354.630 184.799, 353.654 185.775 C 352.340 187.088, 339.424 187.757, 338.240 186.573 C 336.584 184.917, 336.256 170.606, 336.636 116.500 C 337.221 33.075, 337.680 5.771, 338.534 3.666 C 338.943 2.658, 340.228 1.449, 341.389 0.980 C 343.313 0.202, 343.253 0.121, 340.719 0.063 C 339.189 0.029, 337.764 0.563, 337.552 1.250 M 351.752 0.706 C 354.628 1.260, 356.062 3.965, 356.008 8.732 C 355.985 10.804, 355.950 31.422, 355.931 54.549 C 355.897 96.029, 355.925 96.635, 358.036 99.319 C 361.236 103.387, 365.190 105, 371.964 105 C 380.587 105, 386.383 101.162, 387.451 94.747 C 387.748 92.961, 388.202 72.558, 388.460 49.408 C 388.920 8.143, 389.354 2.667, 392.313 0.786 C 393.060 0.310, 392.703 0.025, 391.350 0.015 C 387.723 -0.011, 387.144 6.523, 386.690 52.551 C 386.364 85.545, 385.961 96.089, 384.965 97.685 C 382.697 101.317, 378.605 103, 372.046 103 C 365.440 103, 360.715 101.205, 359.030 98.055 C 358.368 96.819, 357.998 80.287, 357.994 51.816 C 357.991 24.182, 357.597 6.088, 356.947 3.750 C 356.008 0.367, 355.593 0.013, 352.703 0.136 C 350.347 0.236, 350.096 0.387, 351.752 0.706 M 110.151 2.114 C 106.186 2.858, 68.423 21.577, 66 24 C 65.725 24.275, 62.350 26.068, 58.500 27.983 C 54.650 29.899, 49.925 32.407, 48 33.557 C 46.075 34.707, 38.200 38.944, 30.500 42.973 C 22.800 47.002, 16.350 50.681, 16.167 51.149 C 15.983 51.617, 15.265 52, 14.570 52 C 12.254 52, 7.074 55.091, 5.025 57.696 C 2.317 61.138, 2.415 66.237, 5.250 69.394 C 7.899 72.344, 16.901 77.092, 66.500 101.702 C 86.850 111.799, 104.343 120.535, 105.372 121.115 C 106.402 121.695, 109.659 122.419, 112.610 122.723 C 118.814 123.364, 128.598 120.261, 139.887 114.072 C 143.524 112.078, 148.300 109.616, 150.500 108.601 C 157.131 105.542, 195.616 86.257, 197.749 84.925 C 198.841 84.242, 200.470 83.966, 201.368 84.311 C 202.822 84.869, 203 87.915, 203 112.320 L 203 139.703 200 142.843 C 197.588 145.366, 197 146.853, 197 150.423 C 197 154.183, 197.445 155.181, 199.904 156.932 C 203.865 159.752, 208.175 159.565, 211.923 156.411 C 216.302 152.727, 216.156 148.285, 211.485 143.115 L 207.970 139.224 208.235 109.521 L 208.500 79.817 216.500 75.517 C 225.749 70.546, 228.431 66.989, 226.916 61.706 C 225.575 57.031, 222.733 54.791, 209.500 47.977 C 202.900 44.579, 197.050 41.455, 196.500 41.037 C 195.950 40.618, 190.325 37.580, 184 34.287 C 177.675 30.993, 165.975 24.791, 158 20.504 C 122.243 1.284, 119.729 0.317, 110.151 2.114 M 287.153 42 C 286.576 53.454, 286.887 131.009, 287.514 132.023 C 287.846 132.560, 289.180 133, 290.477 133 C 295.477 133, 295.994 133.769, 296.100 141.357 C 296.169 146.327, 296.434 147.740, 296.972 146 C 298.024 142.596, 297.048 134.867, 295.314 132.865 C 294.535 131.965, 292.575 130.965, 290.959 130.642 L 288.020 130.054 287.750 82.777 C 287.601 56.775, 287.333 38.425, 287.153 42 M 462.228 62.197 C 459.327 63.638, 459.064 64.909, 458.544 80 C 458.307 86.875, 458.088 92.772, 458.057 93.105 C 458.025 93.438, 454.811 93.977, 450.914 94.304 C 447.016 94.631, 443.191 95.426, 442.414 96.071 C 440.768 97.437, 440.424 111.538, 441.977 114 C 442.634 115.042, 445.298 115.653, 450.711 116 L 458.500 116.500 459.118 132 C 459.876 151.040, 459.687 149.545, 461.571 151.429 C 463.724 153.581, 473.756 153.559, 476.845 151.396 C 479.093 149.821, 479.131 149.489, 478.904 133.066 C 478.776 123.866, 478.998 115.813, 479.395 115.170 C 479.813 114.493, 482.577 114, 485.948 114 C 493.820 114, 495.916 112.239, 496.661 105 C 497.505 96.802, 495.557 94.825, 485.899 94.075 L 478.500 93.500 478.282 82 C 477.987 66.450, 477.559 64.461, 474.226 63.152 C 469.766 61.400, 464.652 60.993, 462.228 62.197 M 461.667 64.667 C 461.300 65.033, 461 71.693, 461 79.467 C 461 89.126, 460.620 93.980, 459.800 94.800 C 459.090 95.510, 455.672 96, 451.422 96 C 446.472 96, 443.882 96.437, 443.077 97.408 C 442.353 98.280, 442.021 101.605, 442.204 106.158 L 442.500 113.500 450.704 114 C 455.216 114.275, 459.344 114.950, 459.876 115.500 C 460.408 116.050, 460.991 123.744, 461.172 132.599 C 461.568 152.047, 461.793 152.535, 469.900 151.582 C 472.907 151.228, 475.922 150.479, 476.599 149.917 C 477.525 149.149, 477.698 144.742, 477.296 132.169 C 476.673 112.683, 476.480 113.114, 486.213 112.276 C 489.671 111.978, 493.063 111.289, 493.750 110.745 C 494.513 110.141, 495 107.301, 495 103.455 C 495 97.200, 494.976 97.147, 491.662 96.053 C 489.826 95.448, 485.998 95.034, 483.154 95.135 C 480.311 95.235, 477.678 95.012, 477.305 94.638 C 476.931 94.264, 476.464 87.802, 476.268 80.279 C 476.066 72.513, 475.446 66.037, 474.834 65.300 C 473.713 63.949, 462.904 63.430, 461.667 64.667 M 266.339 71.200 C 265.795 71.915, 264.800 74.525, 264.128 77 C 263.456 79.475, 259.507 91.971, 255.353 104.770 C 251.200 117.568, 248.032 128.641, 248.314 129.376 C 248.596 130.112, 250.554 130.931, 252.664 131.198 C 257.310 131.784, 268.586 130.748, 269.699 129.633 C 270.139 129.191, 270.450 116.233, 270.388 100.838 C 270.295 77.619, 270.025 72.596, 268.802 71.373 C 267.605 70.176, 267.143 70.144, 266.339 71.200 M 266.785 75 C 265.757 77.459, 254.348 112.908, 252.027 120.856 C 250.845 124.901, 250.169 128.501, 250.524 128.856 C 251.365 129.695, 265.021 129.590, 267.269 128.727 C 268.824 128.130, 268.988 126.310, 268.883 110.781 C 268.747 90.787, 267.694 72.827, 266.785 75 M 155 118.370 L 125.500 133.500 115.393 133.500 L 105.285 133.500 75.580 118.750 C 59.242 110.638, 45.244 104, 44.473 104 C 43.701 104, 42.548 104.976, 41.909 106.169 C 40.357 109.070, 41.568 131.854, 43.611 138.194 C 45.522 144.125, 51.195 149.870, 60.430 155.224 C 64.318 157.478, 73.404 162.823, 80.619 167.100 C 102.523 180.086, 105.419 181.402, 113.047 181.833 C 120.735 182.267, 124.823 181.170, 132.881 176.508 C 135.972 174.720, 147.182 168.380, 157.793 162.419 C 186.014 146.566, 187.870 144.178, 189.243 121.942 C 190.143 107.374, 189.439 102.906, 186.275 103.120 C 185.299 103.186, 171.225 110.049, 155 118.370 M 43.352 106.526 C 43.029 107.366, 42.985 113.780, 43.255 120.777 C 44.033 141.013, 46.175 144.629, 63.739 155.357 C 68.821 158.461, 73.169 161, 73.401 161 C 73.633 161, 78.926 164.091, 85.162 167.869 C 105.196 180.007, 106.410 180.509, 115.500 180.433 C 122.970 180.370, 124.030 180.080, 131.500 176.046 C 135.900 173.670, 139.950 171.386, 140.500 170.970 C 141.050 170.554, 143.075 169.318, 145 168.224 C 177.040 150.014, 181.373 146.764, 185.134 138.120 C 187.355 133.016, 188.604 118.987, 187.571 110.726 C 186.871 105.120, 186.859 105.103, 184.184 106.117 C 181.495 107.137, 175.370 110.201, 143.302 126.573 C 126.390 135.207, 125.963 135.360, 117.677 135.795 C 112.414 136.072, 107.795 135.764, 105.375 134.977 C 103.244 134.283, 88.549 127.254, 72.719 119.357 C 49.794 107.919, 43.819 105.308, 43.352 106.526 M 291.009 149.741 C 289.089 149.973, 287.183 150.689, 286.774 151.331 C 286.365 151.974, 286.024 160.172, 286.015 169.550 C 286.004 181.799, 285.648 186.973, 284.750 187.925 C 283.743 188.993, 283.781 189.164, 284.945 188.810 C 287.352 188.077, 288.065 183.174, 287.899 168.500 C 287.812 160.800, 287.799 153.958, 287.870 153.295 C 287.942 152.633, 289.580 151.794, 291.511 151.432 C 293.442 151.070, 295.269 150.374, 295.570 149.887 C 295.871 149.399, 295.754 149.072, 295.309 149.160 C 294.864 149.248, 292.929 149.510, 291.009 149.741" stroke="none" fill="#235155" fill-rule="evenodd"/><path d="M 273.310 0.836 C 270.964 2.347, 266.919 12.687, 260.333 34 C 258.378 40.325, 256.299 46.400, 255.711 47.500 C 255.123 48.600, 254.094 51.750, 253.423 54.500 C 252.753 57.250, 250.170 65.350, 247.683 72.500 C 241.802 89.406, 236.793 105.675, 232.382 122.194 C 225.170 149.199, 225.252 148.344, 229.779 149.481 C 231.228 149.844, 240.417 150.147, 250.199 150.154 C 262.429 150.162, 268.205 150.522, 268.690 151.307 C 269.077 151.934, 269.278 158.194, 269.135 165.218 C 268.785 182.468, 269.454 186.549, 272.852 187.875 C 276.206 189.184, 283.111 189.131, 284.750 187.783 C 285.660 187.035, 286 182.181, 286 169.959 C 286 160.722, 286.273 152.452, 286.607 151.582 C 286.961 150.658, 288.384 150, 290.025 150 C 295.566 150, 296 149.383, 296 141.500 C 296 133.740, 295.519 133, 290.477 133 C 289.180 133, 287.842 132.553, 287.504 132.007 C 287.167 131.460, 286.883 111.548, 286.875 87.757 C 286.859 43.111, 285.586 3.186, 284.131 1.731 C 283.062 0.662, 274.659 -0.034, 273.310 0.836 M 341.389 0.922 C 340.228 1.423, 338.943 2.658, 338.534 3.666 C 337.680 5.771, 337.221 33.075, 336.636 116.500 C 336.256 170.606, 336.584 184.917, 338.240 186.573 C 339.424 187.757, 352.340 187.088, 353.654 185.775 C 354.630 184.799, 354.991 178.843, 355.115 161.683 C 355.290 137.336, 356.046 130.094, 358.580 128.500 C 359.454 127.950, 361.071 126.738, 362.173 125.806 C 363.804 124.427, 365.599 124.202, 371.794 124.599 C 386.769 125.559, 387.056 126.204, 387.534 159.890 C 387.763 176.036, 388.257 184.655, 388.994 185.390 C 390.152 186.545, 399.094 186.695, 403.336 185.630 C 404.680 185.293, 406.060 184.287, 406.402 183.394 C 406.901 182.094, 407.030 131.924, 406.688 72 C 406.661 67.325, 406.734 50.050, 406.850 33.612 C 407.089 -0.307, 407.277 0.543, 399.457 0.139 C 393.104 -0.190, 391.339 0.588, 390.048 4.291 C 389.323 6.370, 388.763 22.293, 388.460 49.500 C 388.202 72.600, 387.748 92.961, 387.451 94.747 C 386.383 101.162, 380.587 105, 371.964 105 C 365.190 105, 361.236 103.387, 358.036 99.319 C 355.925 96.635, 355.897 96.031, 355.934 54.549 C 355.955 31.422, 355.989 10.689, 356.011 8.475 C 356.032 6.262, 355.476 3.666, 354.775 2.708 C 353.288 0.674, 344.638 -0.479, 341.389 0.922 M 110.151 2.114 C 106.186 2.858, 68.423 21.577, 66 24 C 65.725 24.275, 62.350 26.068, 58.500 27.983 C 54.650 29.899, 49.925 32.407, 48 33.557 C 46.075 34.707, 38.200 38.944, 30.500 42.973 C 22.800 47.002, 16.350 50.681, 16.167 51.149 C 15.983 51.617, 15.265 52, 14.570 52 C 12.254 52, 7.074 55.091, 5.025 57.696 C 2.317 61.138, 2.415 66.237, 5.250 69.394 C 7.899 72.344, 16.901 77.092, 66.500 101.702 C 86.850 111.799, 104.343 120.535, 105.372 121.115 C 106.402 121.695, 109.659 122.419, 112.610 122.723 C 118.814 123.364, 128.598 120.261, 139.887 114.072 C 143.524 112.078, 148.300 109.616, 150.500 108.601 C 157.131 105.542, 195.616 86.257, 197.749 84.925 C 198.841 84.242, 200.470 83.966, 201.368 84.311 C 202.822 84.869, 203 87.915, 203 112.320 L 203 139.703 200 142.843 C 197.588 145.366, 197 146.853, 197 150.423 C 197 154.183, 197.445 155.181, 199.904 156.932 C 203.865 159.752, 208.175 159.565, 211.923 156.411 C 216.302 152.727, 216.156 148.285, 211.485 143.115 L 207.970 139.224 208.235 109.521 L 208.500 79.817 216.500 75.517 C 225.749 70.546, 228.431 66.989, 226.916 61.706 C 225.575 57.031, 222.733 54.791, 209.500 47.977 C 202.900 44.579, 197.050 41.455, 196.500 41.037 C 195.950 40.618, 190.325 37.580, 184 34.287 C 177.675 30.993, 165.975 24.791, 158 20.504 C 122.243 1.284, 119.729 0.317, 110.151 2.114 M 461.667 64.667 C 461.300 65.033, 461 71.693, 461 79.467 C 461 89.126, 460.620 93.980, 459.800 94.800 C 459.090 95.510, 455.672 96, 451.422 96 C 446.472 96, 443.882 96.437, 443.077 97.408 C 442.353 98.280, 442.021 101.605, 442.204 106.158 L 442.500 113.500 450.704 114 C 455.216 114.275, 459.344 114.950, 459.876 115.500 C 460.408 116.050, 460.991 123.744, 461.172 132.599 C 461.568 152.047, 461.793 152.535, 469.900 151.582 C 472.907 151.228, 475.922 150.479, 476.599 149.917 C 477.525 149.149, 477.698 144.742, 477.296 132.169 C 476.673 112.683, 476.480 113.114, 486.213 112.276 C 489.671 111.978, 493.063 111.289, 493.750 110.745 C 494.513 110.141, 495 107.301, 495 103.455 C 495 97.200, 494.976 97.147, 491.662 96.053 C 489.826 95.448, 485.998 95.034, 483.154 95.135 C 480.311 95.235, 477.678 95.012, 477.305 94.638 C 476.931 94.264, 476.464 87.802, 476.268 80.279 C 476.066 72.513, 475.446 66.037, 474.834 65.300 C 473.713 63.949, 462.904 63.430, 461.667 64.667 M 266.339 71.200 C 265.795 71.915, 264.800 74.525, 264.128 77 C 263.456 79.475, 259.507 91.971, 255.353 104.770 C 251.200 117.568, 248.032 128.641, 248.314 129.376 C 248.596 130.112, 250.554 130.931, 252.664 131.198 C 257.310 131.784, 268.586 130.748, 269.699 129.633 C 270.139 129.191, 270.450 116.233, 270.388 100.838 C 270.295 77.619, 270.025 72.596, 268.802 71.373 C 267.605 70.176, 267.143 70.144, 266.339 71.200 M 43.352 106.526 C 43.029 107.366, 42.985 113.780, 43.255 120.777 C 44.033 141.013, 46.175 144.629, 63.739 155.357 C 68.821 158.461, 73.169 161, 73.401 161 C 73.633 161, 78.926 164.091, 85.162 167.869 C 105.196 180.007, 106.410 180.509, 115.500 180.433 C 122.970 180.370, 124.030 180.080, 131.500 176.046 C 135.900 173.670, 139.950 171.386, 140.500 170.970 C 141.050 170.554, 143.075 169.318, 145 168.224 C 177.040 150.014, 181.373 146.764, 185.134 138.120 C 187.355 133.016, 188.604 118.987, 187.571 110.726 C 186.871 105.120, 186.859 105.103, 184.184 106.117 C 181.495 107.137, 175.370 110.201, 143.302 126.573 C 126.390 135.207, 125.963 135.360, 117.677 135.795 C 112.414 136.072, 107.795 135.764, 105.375 134.977 C 103.244 134.283, 88.549 127.254, 72.719 119.357 C 49.794 107.919, 43.819 105.308, 43.352 106.526" stroke="none" fill="#227278" fill-rule="evenodd"/></svg>