<svg width="44" height="44" viewBox="0 0 44 44" fill="none" xmlns="http://www.w3.org/2000/svg">
<rect width="44" height="44" rx="22" fill="#1F6AFA" fill-opacity="0.2"/>
<path d="M22.0001 31L21.293 31.7071L22.0001 32.4142L22.7072 31.7071L22.0001 31ZM23.0001 13C23.0001 12.4477 22.5524 12 22.0001 12C21.4478 12 21.0001 12.4477 21.0001 13L23.0001 13ZM11.2929 21.7071L21.293 31.7071L22.7072 30.2929L12.7071 20.2929L11.2929 21.7071ZM22.7072 31.7071L32.7071 21.7071L31.2929 20.2929L21.293 30.2929L22.7072 31.7071ZM23.0001 31L23.0001 13L21.0001 13L21.0001 31L23.0001 31Z" fill="#1F6AFA"/>
</svg>
